<svg xmlns="http://www.w3.org/2000/svg" xmlns:xlink="http://www.w3.org/1999/xlink" width="567" zoomAndPan="magnify" viewBox="0 0 425.25 283.500005" height="378" preserveAspectRatio="xMidYMid meet" version="1.0"><defs><g/><clipPath id="d8ed5a20fe"><path d="M 347.300781 69 L 378 69 L 378 99.480469 L 347.300781 99.480469 Z M 347.300781 69 " clip-rule="nonzero"/></clipPath><clipPath id="e914f03df1"><path d="M 347.300781 72 L 375 72 L 375 99.480469 L 347.300781 99.480469 Z M 347.300781 72 " clip-rule="nonzero"/></clipPath><clipPath id="dcd9286836"><path d="M 375 74 L 378 74 L 378 77 L 375 77 Z M 375 74 " clip-rule="nonzero"/></clipPath><clipPath id="c66c803a63"><path d="M 352 68.78125 L 378 68.78125 L 378 95 L 352 95 Z M 352 68.78125 " clip-rule="nonzero"/></clipPath><clipPath id="446c338e3a"><path d="M 347.300781 73 L 374 73 L 374 99.480469 L 347.300781 99.480469 Z M 347.300781 73 " clip-rule="nonzero"/></clipPath><clipPath id="cdb21705e4"><rect x="0" width="390" y="0" height="112"/></clipPath></defs><g transform="matrix(1, 0, 0, 1, 18, 86)"><g clip-path="url(#cdb21705e4)"><g fill="#ff3131" fill-opacity="1"><g transform="translate(15.237486, 96.34031)"><g><path d="M 4.226562 -1.558594 C 5.3125 3.304688 5.445312 4.683594 4.839844 6.3125 C 4.003906 8.875 3.9375 8.976562 4.21875 10.234375 C 4.6875 12.332031 6.328125 13.375 8.339844 12.925781 C 9.09375 12.757812 10.246094 12.410156 11.636719 11.925781 C 13.695312 11.289062 17.261719 10.320312 19.523438 9.8125 C 21.957031 9.273438 25.851562 8.578125 27.5625 8.375 C 28.859375 8.261719 29.882812 8.121094 30.46875 7.988281 C 32.398438 7.558594 33.421875 5.835938 32.972656 3.824219 C 32.691406 2.566406 32.589844 2.5 30.660156 0.554688 C 29.503906 -0.683594 29.128906 -1.566406 28.34375 -5.089844 C 28.175781 -5.84375 28.269531 -6.214844 28.773438 -6.328125 C 29.023438 -6.382812 29.378906 -6.375 29.75 -6.28125 C 32.015625 -5.996094 34.539062 -6.117188 37.472656 -6.773438 C 52.730469 -10.175781 60.734375 -24.015625 57.03125 -40.613281 C 53.460938 -56.625 41.128906 -65.757812 27.296875 -62.671875 C 22.769531 -61.664062 19.363281 -59.582031 17.371094 -56.675781 C 15.59375 -53.988281 15.59375 -53.988281 15.089844 -53.878906 C 14.671875 -53.785156 14.140625 -54.195312 13.925781 -54.761719 C 13.410156 -56.671875 13.410156 -56.671875 13.027344 -57.203125 C 12.421875 -57.945312 11.367188 -58.328125 10.277344 -58.085938 C 9.777344 -57.972656 9.039062 -57.722656 8.222656 -57.449219 C 6.769531 -56.863281 4.878906 -56.265625 3.367188 -55.929688 C 2.109375 -55.648438 -1.449219 -55.03125 -3.265625 -54.890625 C -4.707031 -54.65625 -5.902344 -54.476562 -6.65625 -54.308594 C -8.667969 -53.859375 -9.710938 -52.21875 -9.242188 -50.125 C -8.980469 -48.949219 -8.839844 -48.71875 -7.011719 -46.835938 C -5.773438 -45.617188 -5.304688 -44.3125 -4.242188 -39.535156 Z M 21.625 -34.832031 C 20.484375 -39.945312 21.210938 -42.21875 24.3125 -42.910156 C 27.664062 -43.65625 30.398438 -40.484375 31.742188 -34.449219 C 33.070312 -28.496094 31.910156 -24.628906 28.722656 -23.917969 C 25.621094 -23.226562 23.8125 -25.023438 22.726562 -29.886719 Z M 21.625 -34.832031 "/></g></g></g><g fill="#ff3131" fill-opacity="1"><g transform="translate(77.394842, 82.49082)"><g><path d="M 51.992188 -29.246094 C 55.140625 -29.65625 56 -31.066406 55.480469 -35.070312 C 53.144531 -53.128906 41.996094 -61.644531 23.851562 -59.296875 C 5.109375 -56.871094 -4.425781 -44.898438 -2.078125 -26.753906 C 0.292969 -8.4375 12.933594 0.230469 33.546875 -2.4375 C 40.363281 -3.320312 48.152344 -5.367188 51.480469 -7.097656 C 53.4375 -8.042969 53.488281 -8.308594 53.628906 -12.570312 C 53.582031 -13.605469 54.261719 -19.0625 54.636719 -20.84375 C 54.84375 -21.910156 54.917969 -22.695312 54.839844 -23.292969 C 54.683594 -24.484375 53.359375 -25.355469 52.082031 -25.1875 C 51.316406 -25.089844 50.984375 -24.960938 47.007812 -23.578125 C 42.539062 -21.960938 39.773438 -21.257812 35.34375 -20.683594 C 30.746094 -20.089844 28.644531 -20.25 26.703125 -21.210938 C 25.132812 -21.960938 24.007812 -23.285156 23.851562 -24.480469 C 23.730469 -25.417969 24.050781 -25.632812 26.351562 -25.929688 Z M 24.542969 -35.222656 C 22.667969 -34.980469 21.929688 -35.316406 21.753906 -36.679688 C 21.3125 -40.085938 23.390625 -42.78125 26.628906 -43.199219 C 29.949219 -43.628906 32.449219 -41.703125 32.890625 -38.292969 C 33.089844 -36.761719 32.378906 -36.234375 29.738281 -35.894531 Z M 15.847656 -66.921875 C 15.660156 -66.375 15.46875 -65.832031 15.269531 -65.375 C 15.070312 -64.914062 15.039062 -64.476562 15.070312 -64.222656 C 15.148438 -63.625 15.800781 -63.277344 16.824219 -63.410156 C 17.164062 -63.453125 17.929688 -63.550781 18.855469 -63.757812 L 22.09375 -64.179688 L 24.050781 -64.433594 C 24.914062 -64.457031 25.597656 -64.542969 25.851562 -64.578125 C 27.554688 -64.796875 27.703125 -64.992188 31.125 -70.023438 C 33.15625 -73.058594 33.546875 -74.0625 33.335938 -75.679688 C 33.117188 -77.382812 31.960938 -78.273438 30.257812 -78.054688 C 29.917969 -78.007812 29.074219 -77.8125 28.066406 -77.597656 C 27.394531 -77.421875 26.628906 -77.324219 25.605469 -77.191406 C 24.496094 -77.046875 23.464844 -77 22.6875 -76.988281 C 21.726562 -77.035156 20.863281 -77.011719 20.4375 -76.957031 C 19.585938 -76.84375 18.996094 -76.074219 18.3125 -73.996094 Z M 15.847656 -66.921875 "/></g></g></g><g fill="#ff3131" fill-opacity="1"><g transform="translate(135.455556, 74.687472)"><g><path d="M 4.890625 -14.53125 C 5.066406 -9.636719 4.945312 -8.257812 4.054688 -6.765625 C 2.761719 -4.484375 2.679688 -4.308594 2.722656 -3.105469 C 2.804688 -0.875 4.140625 0.367188 6.371094 0.285156 C 7.144531 0.257812 8.253906 0.132812 9.710938 -0.0078125 C 12.109375 -0.265625 15.792969 -0.570312 19.140625 -0.691406 C 23.003906 -0.832031 26.53125 -0.785156 28.855469 -0.613281 C 30.0625 -0.570312 31.179688 -0.523438 31.78125 -0.546875 C 33.839844 -0.621094 35.078125 -2.039062 35 -4.1875 C 34.957031 -5.386719 34.867188 -5.558594 33.410156 -7.824219 C 32.5 -9.167969 32.191406 -10.617188 32.074219 -13.878906 C 32 -15.851562 32.664062 -16.566406 34.464844 -16.628906 C 35.066406 -16.652344 35.753906 -16.675781 36.527344 -16.617188 C 38.164062 -16.589844 39.363281 -16.636719 40.136719 -16.664062 C 56.875 -17.265625 67.148438 -27.953125 66.5625 -44.175781 C 66.246094 -52.84375 62.1875 -60.519531 55.949219 -64.332031 C 50.410156 -67.742188 43.398438 -69.121094 33.699219 -68.773438 C 31.898438 -68.707031 29.152344 -68.523438 25.726562 -68.226562 C 20.070312 -67.765625 18.011719 -67.605469 15.523438 -67.515625 C 12.777344 -67.414062 11.316406 -67.449219 7.957031 -67.671875 C 6.492188 -67.703125 5.117188 -67.738281 4.171875 -67.707031 C 1.683594 -67.617188 0.441406 -66.28125 0.527344 -63.964844 C 0.570312 -62.761719 0.660156 -62.59375 2.117188 -60.324219 C 3.113281 -58.902344 3.335938 -57.535156 3.511719 -52.640625 Z M 28.835938 -46.421875 C 28.734375 -49.167969 29.230469 -49.703125 32.320312 -49.8125 C 38.246094 -50.027344 41.070312 -47.894531 41.25 -43.003906 C 41.433594 -37.851562 38.609375 -35.171875 32.6875 -34.957031 C 30.113281 -34.863281 29.230469 -35.433594 29.164062 -37.324219 Z M 28.835938 -46.421875 "/></g></g></g><g fill="#ff3131" fill-opacity="1"><g transform="translate(202.110947, 72.791279)"><g><path d="M 5.894531 -14.121094 C 5.699219 -9.226562 5.472656 -7.859375 4.46875 -6.441406 C 3.007812 -4.261719 2.914062 -4.09375 2.867188 -2.894531 C 2.78125 -0.75 4.097656 0.679688 6.246094 0.765625 C 7.015625 0.796875 8.222656 0.757812 9.597656 0.726562 C 12.269531 0.578125 15.191406 0.609375 19.136719 0.765625 C 23.34375 0.933594 26.34375 1.140625 28.734375 1.582031 C 29.929688 1.714844 31.042969 1.84375 31.644531 1.871094 C 33.617188 1.949219 35.046875 0.628906 35.132812 -1.515625 C 35.179688 -2.714844 35.105469 -2.976562 33.820312 -5.265625 C 32.9375 -6.847656 32.8125 -7.96875 33.015625 -13.03125 L 34.542969 -51.136719 C 34.746094 -56.203125 34.964844 -57.394531 35.96875 -58.816406 C 37.429688 -60.992188 37.527344 -61.246094 37.574219 -62.449219 C 37.664062 -64.679688 36.34375 -66.109375 34.285156 -66.191406 C 33.425781 -66.226562 32.136719 -66.191406 30.84375 -66.15625 C 27.742188 -65.9375 25.851562 -65.929688 21.300781 -66.109375 C 17.527344 -66.261719 16.5 -66.386719 12.996094 -66.871094 C 11.539062 -67.015625 10.167969 -67.15625 9.226562 -67.195312 C 6.820312 -67.292969 5.398438 -66.058594 5.304688 -63.742188 C 5.253906 -62.453125 5.25 -62.367188 6.617188 -59.992188 C 7.5 -58.496094 7.617188 -57.117188 7.421875 -52.226562 Z M 5.894531 -14.121094 "/></g></g></g><g fill="#ff3131" fill-opacity="1"><g transform="translate(238.508084, 74.143142)"><g><path d="M 33.175781 -27.742188 C 33.390625 -29.964844 34.253906 -30.828125 36.046875 -30.652344 C 36.730469 -30.585938 37.578125 -30.417969 38.671875 -30.136719 C 39.339844 -29.898438 39.929688 -29.757812 40.359375 -29.714844 C 42.152344 -29.539062 43.398438 -30.796875 43.597656 -32.851562 C 43.640625 -33.277344 43.707031 -33.960938 43.695312 -34.738281 C 43.785156 -36.542969 43.882812 -38.429688 44.070312 -40.3125 C 44.175781 -41.421875 44.269531 -42.363281 44.421875 -43.039062 C 44.75 -44.648438 44.960938 -45.921875 45.003906 -46.347656 C 45.179688 -48.144531 44.011719 -49.464844 42.046875 -49.65625 C 41.535156 -49.707031 40.414062 -49.730469 39.203125 -49.675781 C 38.679688 -49.640625 38.167969 -49.691406 37.652344 -49.742188 C 35.945312 -49.910156 35.4375 -50.90625 35.695312 -53.558594 L 36.363281 -60.394531 C 36.53125 -62.105469 36.558594 -62.363281 36.34375 -62.816406 C 35.90625 -63.632812 34.851562 -64.339844 33.824219 -64.441406 C 32.886719 -64.53125 31.535156 -63.972656 30.582031 -63.03125 C 23.085938 -56.082031 23.085938 -56.082031 19.371094 -54.289062 C 17.023438 -53.222656 14.015625 -52.480469 12.5625 -52.625 L 7.792969 -53.261719 C 6.339844 -53.40625 4.925781 -52.164062 4.773438 -50.625 C 4.714844 -50.023438 4.683594 -48.820312 4.710938 -47.351562 C 4.722656 -46.574219 4.597656 -45.289062 4.429688 -43.582031 C 4.238281 -41.613281 4.003906 -40.082031 3.832031 -39.238281 C 3.632812 -38.050781 3.445312 -37.03125 3.394531 -36.519531 C 3.261719 -35.152344 4.164062 -33.769531 5.359375 -33.652344 C 5.53125 -33.636719 5.785156 -33.609375 6.136719 -33.660156 C 6.921875 -33.757812 7.179688 -33.734375 7.519531 -33.699219 C 8.71875 -33.582031 9.027344 -32.34375 8.734375 -29.351562 C 8.601562 -27.984375 8.375 -26.539062 8.148438 -25.09375 C 6.898438 -17.621094 6.898438 -17.621094 6.707031 -15.65625 C 6.046875 -8.902344 7.496094 -4.273438 11.140625 -0.984375 C 14.644531 2.035156 19.222656 3.777344 25.375 4.378906 C 30.589844 4.886719 35.710938 4.609375 37.699219 3.683594 C 39.59375 2.832031 39.703125 2.585938 40.523438 -2.253906 C 40.699219 -4.050781 42.4375 -10.351562 43.089844 -11.753906 C 43.542969 -12.832031 43.796875 -13.671875 43.863281 -14.355469 C 43.988281 -15.636719 42.738281 -16.96875 41.113281 -17.125 C 40.429688 -17.195312 39.820312 -17.167969 37.449219 -16.707031 C 36.566406 -16.535156 35.789062 -16.523438 35.191406 -16.582031 C 33.140625 -16.785156 32.273438 -18.507812 32.574219 -21.585938 Z M 33.175781 -27.742188 "/></g></g></g><g fill="#ff3131" fill-opacity="1"><g transform="translate(278.847377, 77.671924)"><g><path d="M 58.308594 -12.582031 C 61.441406 -12.039062 62.675781 -13.132812 63.363281 -17.113281 C 66.46875 -35.054688 58.332031 -46.484375 40.304688 -49.601562 C 21.683594 -52.820312 9.035156 -44.199219 5.917969 -26.171875 C 2.773438 -7.976562 12.289062 4.042969 32.769531 7.582031 C 39.542969 8.753906 47.589844 9.101562 51.277344 8.429688 C 53.425781 8.105469 53.554688 7.863281 54.949219 3.835938 C 55.210938 2.832031 57.46875 -2.179688 58.355469 -3.769531 C 58.871094 -4.726562 59.171875 -5.460938 59.273438 -6.050781 C 59.476562 -7.238281 58.46875 -8.457031 57.199219 -8.675781 C 56.4375 -8.808594 56.085938 -8.78125 51.875 -8.636719 C 47.128906 -8.414062 44.277344 -8.558594 39.878906 -9.316406 C 35.308594 -10.109375 33.347656 -10.882812 31.777344 -12.375 C 30.5 -13.554688 29.816406 -15.15625 30.019531 -16.339844 C 30.183594 -17.269531 30.550781 -17.382812 32.835938 -16.984375 Z M 33.851562 -26.398438 C 31.988281 -26.71875 31.386719 -27.261719 31.621094 -28.613281 C 32.207031 -32 34.984375 -33.960938 38.203125 -33.402344 C 41.503906 -32.832031 43.324219 -30.253906 42.738281 -26.867188 C 42.472656 -25.34375 41.636719 -25.050781 39.015625 -25.503906 Z M 33.851562 -26.398438 "/></g></g></g><g fill="#ff3131" fill-opacity="1"><g transform="translate(337.324617, 88.354449)"><g/></g></g><g fill="#ff3131" fill-opacity="1"><g transform="translate(354.335942, 92.287551)"><g/></g></g><g clip-path="url(#d8ed5a20fe)"><path fill="#ff3131" d="M 376.941406 86.082031 C 376.71875 86.117188 376.488281 86.132812 376.257812 86.132812 C 374.117188 86.132812 372.304688 84.734375 371.683594 82.800781 C 371.578125 82.46875 371.304688 82.214844 370.964844 82.148438 C 367.410156 81.472656 364.71875 78.351562 364.71875 74.597656 C 364.71875 73.019531 365.195312 71.558594 366.011719 70.335938 C 366.203125 70.046875 366.042969 69.660156 365.699219 69.59375 C 364.761719 69.40625 363.789062 69.308594 362.796875 69.308594 C 354.566406 69.308594 347.894531 75.980469 347.894531 84.210938 C 347.894531 92.441406 354.566406 99.113281 362.796875 99.113281 C 370.214844 99.113281 376.347656 93.714844 377.5 86.621094 C 377.554688 86.300781 377.265625 86.035156 376.941406 86.082031 Z M 376.941406 86.082031 " fill-opacity="1" fill-rule="nonzero"/></g><path fill="#ffffff" d="M 357.988281 79.402344 C 357.988281 79.660156 357.941406 79.90625 357.84375 80.140625 C 357.746094 80.375 357.605469 80.582031 357.425781 80.761719 C 357.246094 80.945312 357.039062 81.082031 356.804688 81.179688 C 356.566406 81.277344 356.324219 81.328125 356.066406 81.328125 C 355.8125 81.328125 355.566406 81.277344 355.332031 81.179688 C 355.097656 81.082031 354.886719 80.945312 354.707031 80.761719 C 354.527344 80.582031 354.390625 80.375 354.292969 80.140625 C 354.195312 79.90625 354.144531 79.660156 354.144531 79.402344 C 354.144531 79.148438 354.195312 78.902344 354.292969 78.667969 C 354.390625 78.433594 354.527344 78.226562 354.707031 78.042969 C 354.886719 77.863281 355.097656 77.726562 355.332031 77.628906 C 355.566406 77.53125 355.8125 77.480469 356.066406 77.480469 C 356.324219 77.480469 356.566406 77.53125 356.804688 77.628906 C 357.039062 77.726562 357.246094 77.863281 357.425781 78.042969 C 357.605469 78.226562 357.746094 78.433594 357.84375 78.667969 C 357.941406 78.902344 357.988281 79.148438 357.988281 79.402344 Z M 357.988281 79.402344 " fill-opacity="1" fill-rule="nonzero"/><path fill="#ffffff" d="M 358.472656 89.019531 C 358.472656 89.210938 358.433594 89.394531 358.359375 89.570312 C 358.289062 89.746094 358.183594 89.902344 358.046875 90.039062 C 357.914062 90.171875 357.757812 90.277344 357.582031 90.351562 C 357.402344 90.425781 357.21875 90.460938 357.027344 90.460938 C 356.835938 90.460938 356.652344 90.425781 356.476562 90.351562 C 356.300781 90.277344 356.144531 90.171875 356.007812 90.039062 C 355.875 89.902344 355.769531 89.746094 355.695312 89.570312 C 355.625 89.394531 355.585938 89.210938 355.585938 89.019531 C 355.585938 88.828125 355.625 88.644531 355.695312 88.464844 C 355.769531 88.289062 355.875 88.132812 356.007812 88 C 356.144531 87.863281 356.300781 87.757812 356.476562 87.6875 C 356.652344 87.613281 356.835938 87.574219 357.027344 87.574219 C 357.21875 87.574219 357.402344 87.613281 357.582031 87.6875 C 357.757812 87.757812 357.914062 87.863281 358.046875 88 C 358.183594 88.132812 358.289062 88.289062 358.359375 88.464844 C 358.433594 88.644531 358.472656 88.828125 358.472656 89.019531 Z M 358.472656 89.019531 " fill-opacity="1" fill-rule="nonzero"/><path fill="#ff3131" d="M 368.988281 73.207031 L 368.851562 74.03125 C 368.738281 74.714844 369.121094 75.378906 369.765625 75.621094 L 370.988281 76.078125 C 371.792969 76.378906 372.683594 75.914062 372.890625 75.078125 L 373.328125 73.335938 C 373.597656 72.25 372.585938 71.285156 371.515625 71.605469 L 369.996094 72.0625 C 369.46875 72.21875 369.078125 72.664062 368.988281 73.207031 Z M 368.988281 73.207031 " fill-opacity="1" fill-rule="nonzero"/><path fill="#ff3131" d="M 373.855469 78.441406 L 373.273438 78.734375 C 372.816406 78.960938 372.617188 79.503906 372.820312 79.972656 L 373.285156 81.0625 C 373.570312 81.722656 374.449219 81.851562 374.910156 81.296875 L 375.660156 80.398438 C 376.011719 79.972656 375.9375 79.34375 375.5 79.011719 L 374.859375 78.535156 C 374.570312 78.316406 374.179688 78.28125 373.855469 78.441406 Z M 373.855469 78.441406 " fill-opacity="1" fill-rule="nonzero"/><path fill="#ff3131" d="M 377.699219 75.558594 C 377.699219 75.824219 377.605469 76.050781 377.417969 76.238281 C 377.230469 76.425781 377.003906 76.519531 376.738281 76.519531 C 376.472656 76.519531 376.246094 76.425781 376.058594 76.238281 C 375.871094 76.050781 375.777344 75.824219 375.777344 75.558594 C 375.777344 75.292969 375.871094 75.066406 376.058594 74.878906 C 376.246094 74.691406 376.472656 74.597656 376.738281 74.597656 C 377.003906 74.597656 377.230469 74.691406 377.417969 74.878906 C 377.605469 75.066406 377.699219 75.292969 377.699219 75.558594 Z M 377.699219 75.558594 " fill-opacity="1" fill-rule="nonzero"/><g clip-path="url(#e914f03df1)"><path fill="#ff3131" d="M 364.601562 97.308594 C 356.371094 97.308594 349.699219 90.640625 349.699219 82.410156 C 349.699219 78.753906 351.015625 75.40625 353.203125 72.8125 C 349.957031 75.546875 347.894531 79.636719 347.894531 84.210938 C 347.894531 92.441406 354.566406 99.113281 362.796875 99.113281 C 367.375 99.113281 371.460938 97.054688 374.191406 93.816406 C 371.601562 95.996094 368.257812 97.308594 364.601562 97.308594 Z M 364.601562 97.308594 " fill-opacity="1" fill-rule="nonzero"/></g><path fill="#ff3131" d="M 371.199219 74.960938 C 370.394531 74.660156 369.914062 73.828125 370.054688 72.980469 L 370.222656 71.992188 L 369.996094 72.0625 C 369.46875 72.21875 369.078125 72.664062 368.988281 73.207031 L 368.851562 74.03125 C 368.738281 74.714844 369.121094 75.378906 369.765625 75.621094 L 370.988281 76.078125 C 371.632812 76.320312 372.328125 76.0625 372.6875 75.519531 Z M 371.199219 74.960938 " fill-opacity="1" fill-rule="nonzero"/><path fill="#ff3131" d="M 374.3125 80.441406 L 373.78125 79.207031 C 373.683594 78.976562 373.675781 78.730469 373.734375 78.5 L 373.273438 78.734375 C 372.816406 78.960938 372.617188 79.503906 372.820312 79.972656 L 373.285156 81.0625 C 373.570312 81.722656 374.449219 81.851562 374.910156 81.296875 L 375.09375 81.074219 C 374.765625 81.007812 374.464844 80.792969 374.3125 80.441406 Z M 374.3125 80.441406 " fill-opacity="1" fill-rule="nonzero"/><path fill="#ff3131" d="M 357.089844 80.304688 C 356.027344 80.304688 355.167969 79.445312 355.167969 78.382812 C 355.167969 78.117188 355.21875 77.863281 355.316406 77.632812 C 354.628906 77.925781 354.144531 78.609375 354.144531 79.402344 C 354.144531 80.464844 355.003906 81.328125 356.066406 81.328125 C 356.863281 81.328125 357.546875 80.84375 357.839844 80.152344 C 357.609375 80.25 357.355469 80.304688 357.089844 80.304688 Z M 357.089844 80.304688 " fill-opacity="1" fill-rule="nonzero"/><path fill="#ff3131" d="M 357.78125 89.710938 C 356.984375 89.710938 356.335938 89.0625 356.335938 88.265625 C 356.335938 88.0625 356.382812 87.871094 356.457031 87.695312 C 355.945312 87.917969 355.585938 88.425781 355.585938 89.019531 C 355.585938 89.816406 356.234375 90.460938 357.027344 90.460938 C 357.621094 90.460938 358.128906 90.101562 358.351562 89.589844 C 358.175781 89.667969 357.984375 89.710938 357.78125 89.710938 Z M 357.78125 89.710938 " fill-opacity="1" fill-rule="nonzero"/><path fill="#ffffff" d="M 368.085938 90.460938 C 368.085938 90.714844 368.035156 90.960938 367.9375 91.195312 C 367.839844 91.433594 367.703125 91.640625 367.523438 91.820312 C 367.339844 92 367.132812 92.140625 366.898438 92.238281 C 366.664062 92.335938 366.417969 92.382812 366.164062 92.382812 C 365.90625 92.382812 365.664062 92.335938 365.425781 92.238281 C 365.191406 92.140625 364.984375 92 364.804688 91.820312 C 364.621094 91.640625 364.484375 91.433594 364.386719 91.195312 C 364.289062 90.960938 364.238281 90.714844 364.238281 90.460938 C 364.238281 90.207031 364.289062 89.960938 364.386719 89.726562 C 364.484375 89.488281 364.621094 89.28125 364.804688 89.101562 C 364.984375 88.921875 365.191406 88.78125 365.425781 88.683594 C 365.664062 88.585938 365.90625 88.539062 366.164062 88.539062 C 366.417969 88.539062 366.664062 88.585938 366.898438 88.683594 C 367.132812 88.78125 367.339844 88.921875 367.523438 89.101562 C 367.703125 89.28125 367.839844 89.488281 367.9375 89.726562 C 368.035156 89.960938 368.085938 90.207031 368.085938 90.460938 Z M 368.085938 90.460938 " fill-opacity="1" fill-rule="nonzero"/><path fill="#ff3131" d="M 367.183594 91.363281 C 366.121094 91.363281 365.261719 90.5 365.261719 89.4375 C 365.261719 89.171875 365.316406 88.917969 365.414062 88.6875 C 364.722656 88.980469 364.238281 89.664062 364.238281 90.460938 C 364.238281 91.523438 365.101562 92.382812 366.164062 92.382812 C 366.957031 92.382812 367.640625 91.898438 367.933594 91.210938 C 367.703125 91.308594 367.449219 91.363281 367.183594 91.363281 Z M 367.183594 91.363281 " fill-opacity="1" fill-rule="nonzero"/><path fill="#ffffff" d="M 363.257812 81.808594 C 363.257812 82.074219 363.164062 82.300781 362.976562 82.488281 C 362.789062 82.675781 362.5625 82.769531 362.296875 82.769531 C 362.03125 82.769531 361.804688 82.675781 361.617188 82.488281 C 361.429688 82.300781 361.335938 82.074219 361.335938 81.808594 C 361.335938 81.542969 361.429688 81.316406 361.617188 81.128906 C 361.804688 80.941406 362.03125 80.847656 362.296875 80.847656 C 362.5625 80.847656 362.789062 80.941406 362.976562 81.128906 C 363.164062 81.316406 363.257812 81.542969 363.257812 81.808594 Z M 363.257812 81.808594 " fill-opacity="1" fill-rule="nonzero"/><path fill="#ff3131" d="M 356.066406 77.03125 C 354.757812 77.03125 353.695312 78.097656 353.695312 79.402344 C 353.695312 80.710938 354.757812 81.777344 356.066406 81.777344 C 357.375 81.777344 358.441406 80.710938 358.441406 79.402344 C 358.441406 78.097656 357.375 77.03125 356.066406 77.03125 Z M 356.066406 80.878906 C 355.253906 80.878906 354.59375 80.214844 354.59375 79.402344 C 354.59375 78.59375 355.253906 77.929688 356.066406 77.929688 C 356.878906 77.929688 357.539062 78.59375 357.539062 79.402344 C 357.539062 80.214844 356.878906 80.878906 356.066406 80.878906 Z M 356.066406 80.878906 " fill-opacity="1" fill-rule="nonzero"/><path fill="#ff3131" d="M 363.789062 90.460938 C 363.789062 91.769531 364.855469 92.832031 366.164062 92.832031 C 367.46875 92.832031 368.535156 91.769531 368.535156 90.460938 C 368.535156 89.152344 367.46875 88.089844 366.164062 88.089844 C 364.855469 88.089844 363.789062 89.152344 363.789062 90.460938 Z M 366.164062 88.988281 C 366.972656 88.988281 367.636719 89.648438 367.636719 90.460938 C 367.636719 91.273438 366.972656 91.933594 366.164062 91.933594 C 365.351562 91.933594 364.6875 91.273438 364.6875 90.460938 C 364.6875 89.648438 365.351562 88.988281 366.164062 88.988281 Z M 366.164062 88.988281 " fill-opacity="1" fill-rule="nonzero"/><path fill="#ff3131" d="M 357.027344 87.125 C 355.984375 87.125 355.136719 87.976562 355.136719 89.019531 C 355.136719 90.0625 355.984375 90.910156 357.027344 90.910156 C 358.070312 90.910156 358.921875 90.0625 358.921875 89.019531 C 358.921875 87.976562 358.070312 87.125 357.027344 87.125 Z M 357.027344 90.011719 C 356.480469 90.011719 356.035156 89.566406 356.035156 89.019531 C 356.035156 88.472656 356.480469 88.027344 357.027344 88.027344 C 357.574219 88.027344 358.019531 88.472656 358.019531 89.019531 C 358.019531 89.566406 357.574219 90.011719 357.027344 90.011719 Z M 357.027344 90.011719 " fill-opacity="1" fill-rule="nonzero"/><path fill="#ff3131" d="M 360.90625 81.808594 C 360.90625 82.585938 361.539062 83.21875 362.316406 83.21875 C 363.09375 83.21875 363.726562 82.585938 363.726562 81.808594 C 363.726562 81.03125 363.09375 80.398438 362.316406 80.398438 C 361.539062 80.398438 360.90625 81.03125 360.90625 81.808594 Z M 362.316406 81.296875 C 362.597656 81.296875 362.828125 81.527344 362.828125 81.808594 C 362.828125 82.089844 362.597656 82.320312 362.316406 82.320312 C 362.035156 82.320312 361.804688 82.089844 361.804688 81.808594 C 361.804688 81.527344 362.035156 81.296875 362.316406 81.296875 Z M 362.316406 81.296875 " fill-opacity="1" fill-rule="nonzero"/><path fill="#ff3131" d="M 371.449219 88.988281 C 371.519531 88.988281 371.585938 88.972656 371.652344 88.941406 C 371.875 88.828125 371.964844 88.558594 371.851562 88.335938 L 371.371094 87.375 C 371.261719 87.152344 370.992188 87.0625 370.769531 87.175781 C 370.546875 87.285156 370.457031 87.554688 370.566406 87.777344 L 371.046875 88.738281 C 371.125 88.894531 371.285156 88.988281 371.449219 88.988281 Z M 371.449219 88.988281 " fill-opacity="1" fill-rule="nonzero"/><path fill="#ff3131" d="M 366.164062 86.101562 C 366.230469 86.101562 366.300781 86.089844 366.363281 86.054688 L 367.324219 85.574219 C 367.546875 85.464844 367.636719 85.195312 367.527344 84.972656 C 367.414062 84.75 367.144531 84.660156 366.921875 84.769531 L 365.960938 85.25 C 365.738281 85.363281 365.648438 85.632812 365.761719 85.855469 C 365.839844 86.011719 365.996094 86.101562 366.164062 86.101562 Z M 366.164062 86.101562 " fill-opacity="1" fill-rule="nonzero"/><path fill="#ff3131" d="M 352.78125 84.894531 C 352.859375 85.050781 353.019531 85.140625 353.183594 85.140625 C 353.25 85.140625 353.320312 85.125 353.382812 85.09375 C 353.605469 84.984375 353.695312 84.714844 353.585938 84.492188 L 353.105469 83.53125 C 352.992188 83.308594 352.722656 83.21875 352.5 83.328125 C 352.277344 83.4375 352.1875 83.710938 352.300781 83.933594 Z M 352.78125 84.894531 " fill-opacity="1" fill-rule="nonzero"/><path fill="#ff3131" d="M 360.191406 92.460938 L 359.230469 92.941406 C 359.007812 93.054688 358.917969 93.324219 359.03125 93.546875 C 359.109375 93.703125 359.269531 93.792969 359.433594 93.792969 C 359.5 93.792969 359.570312 93.777344 359.632812 93.746094 L 360.59375 93.265625 C 360.816406 93.15625 360.90625 92.886719 360.796875 92.664062 C 360.683594 92.441406 360.414062 92.351562 360.191406 92.460938 Z M 360.191406 92.460938 " fill-opacity="1" fill-rule="nonzero"/><path fill="#ff3131" d="M 360.710938 74.277344 L 360.230469 73.796875 C 360.054688 73.621094 359.769531 73.621094 359.59375 73.796875 C 359.417969 73.972656 359.417969 74.257812 359.59375 74.433594 L 360.074219 74.914062 C 360.164062 75.003906 360.277344 75.046875 360.394531 75.046875 C 360.507812 75.046875 360.625 75.003906 360.710938 74.914062 C 360.886719 74.738281 360.886719 74.453125 360.710938 74.277344 Z M 360.710938 74.277344 " fill-opacity="1" fill-rule="nonzero"/><path fill="#ff3131" d="M 358.632812 84.855469 C 358.457031 85.03125 358.457031 85.316406 358.632812 85.492188 L 359.113281 85.972656 C 359.203125 86.058594 359.316406 86.101562 359.433594 86.101562 C 359.546875 86.101562 359.664062 86.058594 359.75 85.972656 C 359.925781 85.796875 359.925781 85.511719 359.75 85.335938 L 359.269531 84.855469 C 359.09375 84.679688 358.808594 84.679688 358.632812 84.855469 Z M 358.632812 84.855469 " fill-opacity="1" fill-rule="nonzero"/><path fill="#ff3131" d="M 364.269531 95.265625 L 364.269531 95.75 C 364.269531 95.996094 364.472656 96.199219 364.71875 96.199219 C 364.96875 96.199219 365.171875 95.996094 365.171875 95.75 L 365.171875 95.265625 C 365.171875 95.019531 364.96875 94.816406 364.71875 94.816406 C 364.472656 94.816406 364.269531 95.019531 364.269531 95.265625 Z M 364.269531 95.265625 " fill-opacity="1" fill-rule="nonzero"/><path fill="#ff3131" d="M 362.152344 77.800781 L 362.632812 77.320312 C 362.808594 77.144531 362.808594 76.859375 362.632812 76.683594 C 362.460938 76.507812 362.175781 76.507812 362 76.683594 L 361.519531 77.164062 C 361.34375 77.339844 361.34375 77.625 361.519531 77.800781 C 361.605469 77.886719 361.722656 77.929688 361.835938 77.929688 C 361.949219 77.929688 362.066406 77.886719 362.152344 77.800781 Z M 362.152344 77.800781 " fill-opacity="1" fill-rule="nonzero"/><path fill="#ff3131" d="M 369.609375 76.042969 L 370.828125 76.5 C 371.042969 76.578125 371.269531 76.621094 371.492188 76.621094 C 371.796875 76.621094 372.097656 76.546875 372.371094 76.402344 C 372.847656 76.152344 373.199219 75.710938 373.328125 75.1875 L 373.765625 73.445312 C 373.929688 72.777344 373.734375 72.09375 373.234375 71.617188 C 372.734375 71.144531 372.042969 70.976562 371.382812 71.175781 L 369.867188 71.628906 C 369.179688 71.835938 368.660156 72.425781 368.542969 73.132812 L 368.40625 73.960938 C 368.257812 74.847656 368.761719 75.726562 369.609375 76.042969 Z M 369.292969 74.105469 L 369.429688 73.28125 C 369.492188 72.910156 369.765625 72.601562 370.125 72.492188 L 371.644531 72.035156 C 371.738281 72.007812 371.835938 71.992188 371.933594 71.992188 C 372.183594 71.992188 372.425781 72.089844 372.613281 72.269531 C 372.875 72.519531 372.980469 72.878906 372.890625 73.226562 L 372.457031 74.96875 C 372.386719 75.246094 372.207031 75.472656 371.953125 75.605469 C 371.699219 75.738281 371.414062 75.757812 371.144531 75.65625 L 369.921875 75.199219 C 369.480469 75.03125 369.214844 74.574219 369.292969 74.105469 Z M 369.292969 74.105469 " fill-opacity="1" fill-rule="nonzero"/><path fill="#ff3131" d="M 373.070312 78.332031 C 372.40625 78.664062 372.113281 79.464844 372.40625 80.148438 L 372.875 81.238281 C 373.066406 81.695312 373.476562 82.007812 373.964844 82.078125 C 374.035156 82.089844 374.105469 82.09375 374.175781 82.09375 C 374.589844 82.09375 374.980469 81.914062 375.253906 81.585938 L 376.003906 80.683594 C 376.253906 80.382812 376.367188 80.003906 376.324219 79.617188 C 376.277344 79.230469 376.082031 78.886719 375.769531 78.652344 L 375.128906 78.171875 C 374.699219 77.851562 374.132812 77.800781 373.652344 78.039062 Z M 374.054688 78.84375 C 374.128906 78.808594 374.207031 78.789062 374.285156 78.789062 C 374.390625 78.789062 374.5 78.824219 374.589844 78.894531 L 375.226562 79.371094 C 375.34375 79.457031 375.414062 79.582031 375.429688 79.722656 C 375.445312 79.863281 375.40625 80 375.316406 80.109375 L 374.5625 81.011719 C 374.445312 81.148438 374.277344 81.214844 374.097656 81.1875 C 373.914062 81.164062 373.773438 81.050781 373.699219 80.882812 L 373.234375 79.792969 C 373.125 79.546875 373.230469 79.257812 373.472656 79.136719 Z M 374.054688 78.84375 " fill-opacity="1" fill-rule="nonzero"/><g clip-path="url(#dcd9286836)"><path fill="#ff3131" d="M 376.738281 76.96875 C 377.515625 76.96875 378.148438 76.335938 378.148438 75.558594 C 378.148438 74.78125 377.515625 74.148438 376.738281 74.148438 C 375.960938 74.148438 375.328125 74.78125 375.328125 75.558594 C 375.328125 76.335938 375.960938 76.96875 376.738281 76.96875 Z M 376.738281 75.046875 C 377.019531 75.046875 377.25 75.277344 377.25 75.558594 C 377.25 75.839844 377.019531 76.070312 376.738281 76.070312 C 376.457031 76.070312 376.226562 75.839844 376.226562 75.558594 C 376.226562 75.277344 376.457031 75.046875 376.738281 75.046875 Z M 376.738281 75.046875 " fill-opacity="1" fill-rule="nonzero"/></g><g clip-path="url(#c66c803a63)"><path fill="#ff3131" d="M 376.875 85.640625 C 376.671875 85.667969 376.460938 85.683594 376.257812 85.683594 C 374.359375 85.683594 372.691406 84.46875 372.109375 82.660156 C 371.953125 82.167969 371.546875 81.800781 371.050781 81.707031 C 367.640625 81.058594 365.171875 78.066406 365.171875 74.597656 C 365.171875 73.164062 365.589844 71.777344 366.382812 70.585938 C 366.558594 70.324219 366.589844 70 366.472656 69.710938 C 366.351562 69.421875 366.097656 69.214844 365.789062 69.152344 C 364.257812 68.847656 362.6875 68.78125 361.121094 68.949219 C 357.988281 69.289062 355.066406 70.578125 352.675781 72.6875 C 352.488281 72.851562 352.46875 73.136719 352.632812 73.324219 C 352.796875 73.507812 353.082031 73.527344 353.269531 73.363281 C 355.519531 71.378906 358.269531 70.160156 361.21875 69.84375 C 362.691406 69.683594 364.171875 69.75 365.613281 70.035156 C 365.625 70.035156 365.632812 70.039062 365.640625 70.054688 C 365.644531 70.070312 365.640625 70.078125 365.636719 70.085938 C 364.742188 71.425781 364.269531 72.984375 364.269531 74.597656 C 364.269531 78.5 367.050781 81.859375 370.878906 82.589844 C 371.054688 82.625 371.195312 82.753906 371.253906 82.9375 C 371.957031 85.117188 373.964844 86.582031 376.257812 86.582031 C 376.507812 86.582031 376.757812 86.566406 377.007812 86.527344 C 377.039062 86.523438 377.058594 86.542969 377.058594 86.546875 C 376.625 89.214844 375.445312 91.703125 373.652344 93.746094 C 373.488281 93.933594 373.503906 94.21875 373.691406 94.382812 C 373.777344 94.457031 373.882812 94.492188 373.988281 94.492188 C 374.113281 94.492188 374.238281 94.441406 374.328125 94.339844 C 376.234375 92.171875 377.484375 89.527344 377.945312 86.691406 C 377.992188 86.40625 377.902344 86.121094 377.695312 85.910156 C 377.484375 85.695312 377.179688 85.59375 376.875 85.640625 Z M 376.875 85.640625 " fill-opacity="1" fill-rule="nonzero"/></g><g clip-path="url(#446c338e3a)"><path fill="#ff3131" d="M 372.332031 95.066406 C 369.695312 97.386719 366.308594 98.664062 362.796875 98.664062 C 360.773438 98.664062 358.816406 98.253906 356.976562 97.445312 C 355.203125 96.664062 353.625 95.546875 352.289062 94.132812 C 350.953125 92.71875 349.933594 91.082031 349.253906 89.269531 C 348.550781 87.386719 348.253906 85.394531 348.371094 83.359375 C 348.550781 80.183594 349.824219 77.101562 351.949219 74.683594 C 352.113281 74.496094 352.097656 74.210938 351.910156 74.046875 C 351.722656 73.882812 351.4375 73.902344 351.273438 74.089844 C 349.015625 76.660156 347.664062 79.933594 347.472656 83.308594 C 347.347656 85.46875 347.664062 87.582031 348.414062 89.585938 C 349.132812 91.511719 350.214844 93.246094 351.632812 94.75 C 353.054688 96.253906 354.730469 97.4375 356.617188 98.265625 C 358.566406 99.128906 360.648438 99.5625 362.796875 99.5625 C 366.527344 99.5625 370.125 98.207031 372.925781 95.742188 C 373.113281 95.578125 373.132812 95.292969 372.96875 95.105469 C 372.804688 94.917969 372.519531 94.902344 372.332031 95.066406 Z M 372.332031 95.066406 " fill-opacity="1" fill-rule="nonzero"/></g></g></g></svg>